Eight.ufo
<glyph name="exclam" format="1">
  <advance width="164"/>
  <unicode hex="0021"/>
  <outline>
    <contour>
      <point x="35" y="47" type="curve" smooth="yes"/>
      <point x="35" y="76"/>
      <point x="53" y="94"/>
      <point x="82" y="94" type="curve" smooth="yes"/>
      <point x="111" y="94"/>
      <point x="129" y="76"/>
      <point x="129" y="47" type="curve" smooth="yes"/>
      <point x="129" y="18"/>
      <point x="111" y="0"/>
      <point x="82" y="0" type="curve" smooth="yes"/>
      <point x="53" y="0"/>
      <point x="35" y="18"/>
    </contour>
    <contour>
      <point x="67" y="270" type="line"/>
      <point x="50.0" y="611.0" type="line"/>
      <point x="50" y="880" type="line"/>
      <point x="114" y="880" type="line"/>
      <point x="114.0" y="610.0" type="line"/>
      <point x="94" y="270" type="line"/>
    </contour>
  </outline>
</glyph>
<glyph name="comma" format="1">
  <advance width="164"/>
  <unicode hex="002C"/>
  <outline>
    <contour>
      <point x="61" y="121" type="line"/>
      <point x="133" y="121" type="line"/>
      <point x="90" y="-78" type="line"/>
      <point x="51" y="-78" type="line"/>
    </contour>
  </outline>
</glyph>
<glyph name="hyphen" format="1">
  <advance width="500"/>
  <unicode hex="002D"/>
  <outline>
    <contour>
      <point x="82" y="493" type="line"/>
      <point x="82" y="549" type="line"/>
      <point x="418" y="549" type="line"/>
      <point x="418" y="493" type="line"/>
    </contour>
  </outline>
</glyph>
<glyph name="zero" format="1">
  <advance width="757"/>
  <unicode hex="0030"/>
  <outline>
    <contour>
      <point x="379" y="844" type="curve" smooth="yes"/>
      <point x="299" y="844"/>
      <point x="223" y="809"/>
      <point x="179" y="743" type="curve" smooth="yes"/>
      <point x="121" y="655"/>
      <point x="113" y="546"/>
      <point x="113" y="440" type="curve" smooth="yes"/>
      <point x="113" y="334"/>
      <point x="121" y="225"/>
      <point x="179" y="137" type="curve" smooth="yes"/>
      <point x="223" y="71"/>
      <point x="299" y="36"/>
      <point x="379" y="36" type="curve" smooth="yes"/>
      <point x="458" y="36"/>
      <point x="534" y="71"/>
      <point x="578" y="137" type="curve" smooth="yes"/>
      <point x="636" y="225"/>
      <point x="644" y="334"/>
      <point x="644" y="440" type="curve" smooth="yes"/>
      <point x="644" y="546"/>
      <point x="636" y="655"/>
      <point x="578" y="743" type="curve" smooth="yes"/>
      <point x="534" y="809"/>
      <point x="458" y="844"/>
    </contour>
    <contour>
      <point x="379" y="900" type="curve" smooth="yes"/>
      <point x="474" y="900"/>
      <point x="569" y="863"/>
      <point x="624" y="785" type="curve" smooth="yes"/>
      <point x="694" y="686"/>
      <point x="706" y="561"/>
      <point x="706" y="440" type="curve" smooth="yes"/>
      <point x="706" y="319"/>
      <point x="694" y="194"/>
      <point x="624" y="95" type="curve" smooth="yes"/>
      <point x="569" y="17"/>
      <point x="474" y="-20"/>
      <point x="379" y="-20" type="curve" smooth="yes"/>
      <point x="283" y="-20"/>
      <point x="189" y="17"/>
      <point x="133" y="95" type="curve" smooth="yes"/>
      <point x="63" y="194"/>
      <point x="51" y="319"/>
      <point x="51" y="440" type="curve" smooth="yes"/>
      <point x="51" y="561"/>
      <point x="63" y="686"/>
      <point x="133" y="785" type="curve" smooth="yes"/>
      <point x="189" y="863"/>
      <point x="283" y="900"/>
    </contour>
  </outline>
</glyph>
<glyph name="one" format="1">
  <advance width="610"/>
  <unicode hex="0031"/>
  <outline>
    <contour>
      <point x="274" y="0" type="line"/>
      <point x="274" y="861" type="line"/>
      <point x="288" y="855" type="line"/>
      <point x="117" y="572" type="line"/>
      <point x="51" y="572" type="line"/>
      <point x="236" y="880" type="line"/>
      <point x="336" y="880" type="line"/>
      <point x="336" y="0" type="line"/>
    </contour>
  </outline>
</glyph>
<glyph name="two" format="1">
  <advance width="684"/>
  <unicode hex="0032"/>
  <outline>
    <contour>
      <point x="81" y="786" type="line"/>
      <point x="128.666666667" y="872.666666667"/>
      <point x="241" y="900"/>
      <point x="342" y="900" type="curve" smooth="yes"/>
      <point x="545" y="900"/>
      <point x="632" y="801"/>
      <point x="632" y="653" type="curve" smooth="yes"/>
      <point x="632" y="342"/>
      <point x="101" y="297"/>
      <point x="101" y="33" type="curve"/>
      <point x="77" y="56" type="line"/>
      <point x="629" y="56" type="line"/>
      <point x="629" y="0" type="line"/>
      <point x="51" y="0" type="line"/>
      <point x="51" y="53" type="line" smooth="yes"/>
      <point x="51" y="330"/>
      <point x="571" y="382"/>
      <point x="571" y="656" type="curve" smooth="yes"/>
      <point x="571" y="770"/>
      <point x="503" y="844"/>
      <point x="342" y="844" type="curve" smooth="yes"/>
      <point x="264" y="844"/>
      <point x="179.277354077" y="824.209217453"/>
      <point x="138" y="760" type="curve"/>
    </contour>
  </outline>
</glyph>
<glyph name="three" format="1">
  <advance width="684"/>
  <unicode hex="0033"/>
  <outline>
    <contour>
      <point x="81" y="786" type="line"/>
      <point x="128.666666667" y="872.666666667"/>
      <point x="229" y="900"/>
      <point x="342" y="900" type="curve" smooth="yes"/>
      <point x="535" y="900"/>
      <point x="632" y="820"/>
      <point x="632" y="656" type="curve" smooth="yes"/>
      <point x="632" y="537"/>
      <point x="584" y="468"/>
      <point x="441" y="425" type="curve"/>
      <point x="441" y="458" type="line"/>
      <point x="585" y="419"/>
      <point x="632" y="343"/>
      <point x="632" y="224" type="curve" smooth="yes"/>
      <point x="632" y="65"/>
      <point x="534" y="-20"/>
      <point x="342" y="-20" type="curve" smooth="yes"/>
      <point x="226" y="-20"/>
      <point x="128.666666667" y="7.33333333333"/>
      <point x="81" y="94" type="curve"/>
      <point x="136" y="124" type="line"/>
      <point x="174.809690489" y="59.3171825181"/>
      <point x="243" y="36"/>
      <point x="342" y="36" type="curve" smooth="yes"/>
      <point x="505" y="36"/>
      <point x="571" y="110"/>
      <point x="571" y="224" type="curve" smooth="yes"/>
      <point x="571" y="338"/>
      <point x="510" y="412"/>
      <point x="342" y="412" type="curve"/>
      <point x="342" y="468" type="line"/>
      <point x="507" y="468"/>
      <point x="571" y="542"/>
      <point x="571" y="656" type="curve" smooth="yes"/>
      <point x="571" y="800"/>
      <point x="470" y="844"/>
      <point x="342" y="844" type="curve" smooth="yes"/>
      <point x="244" y="844"/>
      <point x="179.277354077" y="824.209217453"/>
      <point x="138" y="760" type="curve"/>
    </contour>
  </outline>
</glyph>
<glyph name="four" format="1">
  <advance width="684"/>
  <unicode hex="0034"/>
  <outline>
    <contour>
      <point x="414" y="0" type="line"/>
      <point x="414" y="259" type="line"/>
      <point x="54" y="259" type="line"/>
      <point x="17" y="304" type="line"/>
      <point x="405" y="880" type="line"/>
      <point x="475" y="880" type="line"/>
      <point x="475" y="315" type="line"/>
      <point x="629" y="315" type="line"/>
      <point x="629" y="259" type="line"/>
      <point x="475" y="259" type="line"/>
      <point x="475" y="0" type="line"/>
    </contour>
    <contour>
      <point x="414" y="315" type="line"/>
      <point x="414" y="869" type="line"/>
      <point x="444" y="841" type="line"/>
      <point x="71" y="288" type="line"/>
      <point x="55" y="315" type="line"/>
    </contour>
  </outline>
</glyph>
<glyph name="seven" format="1">
  <advance width="610"/>
  <unicode hex="0037"/>
  <outline>
    <contour>
      <point x="51" y="824" type="line"/>
      <point x="51" y="880" type="line"/>
      <point x="579" y="880" type="line"/>
      <point x="587" y="824" type="line"/>
      <point x="210" y="0" type="line"/>
      <point x="141" y="0" type="line"/>
      <point x="538" y="857" type="line"/>
      <point x="552" y="824" type="line"/>
    </contour>
  </outline>
</glyph>
<glyph name="eight" format="1">
  <advance width="684"/>
  <unicode hex="0038"/>
  <outline>
    <contour>
      <point x="342" y="844" type="curve" smooth="yes"/>
      <point x="230" y="844"/>
      <point x="113" y="814"/>
      <point x="113" y="667" type="curve" smooth="yes"/>
      <point x="113" y="521"/>
      <point x="230" y="490"/>
      <point x="342" y="490" type="curve" smooth="yes"/>
      <point x="454" y="490"/>
      <point x="571" y="523"/>
      <point x="571" y="667" type="curve" smooth="yes"/>
      <point x="571" y="813"/>
      <point x="454" y="844"/>
    </contour>
    <contour>
      <point x="342" y="900" type="curve" smooth="yes"/>
      <point x="485" y="900"/>
      <point x="632" y="859"/>
      <point x="632" y="667" type="curve" smooth="yes"/>
      <point x="632" y="501"/>
      <point x="493" y="462"/>
      <point x="395" y="449" type="curve"/>
      <point x="395" y="472" type="line"/>
      <point x="494" y="451"/>
      <point x="632" y="427"/>
      <point x="632" y="235" type="curve" smooth="yes"/>
      <point x="632" y="29"/>
      <point x="490" y="-20"/>
      <point x="342" y="-20" type="curve" smooth="yes"/>
      <point x="191" y="-20"/>
      <point x="51" y="29"/>
      <point x="51" y="235" type="curve" smooth="yes"/>
      <point x="51" y="427"/>
      <point x="193" y="451"/>
      <point x="279" y="472" type="curve"/>
      <point x="279" y="449" type="line"/>
      <point x="191" y="462"/>
      <point x="51" y="501"/>
      <point x="51" y="667" type="curve" smooth="yes"/>
      <point x="51" y="857"/>
      <point x="196" y="900"/>
    </contour>
    <contour>
      <point x="342" y="434" type="curve" smooth="yes"/>
      <point x="225" y="434"/>
      <point x="113" y="394"/>
      <point x="113" y="235" type="curve" smooth="yes"/>
      <point x="113" y="73"/>
      <point x="225" y="36"/>
      <point x="342" y="36" type="curve" smooth="yes"/>
      <point x="458" y="36"/>
      <point x="571" y="75"/>
      <point x="571" y="235" type="curve" smooth="yes"/>
      <point x="571" y="396"/>
      <point x="458" y="434"/>
    </contour>
  </outline>
</glyph>
<glyph name="nine" format="1">
  <advance width="684"/>
  <unicode hex="0039"/>
  <outline>
    <contour>
      <point x="603" y="493" type="line"/>
      <point x="562" y="379"/>
      <point x="480" y="324"/>
      <point x="346" y="324" type="curve" smooth="yes"/>
      <point x="160" y="324"/>
      <point x="51" y="415"/>
      <point x="51" y="612" type="curve" smooth="yes"/>
      <point x="51" y="790"/>
      <point x="152" y="900"/>
      <point x="346" y="900" type="curve" smooth="yes"/>
      <point x="553" y="900"/>
      <point x="641" y="785"/>
      <point x="641" y="612" type="curve" smooth="yes"/>
      <point x="641" y="324" type="line" smooth="yes"/>
      <point x="641" y="74"/>
      <point x="500" y="-20"/>
      <point x="327" y="-20" type="curve" smooth="yes"/>
      <point x="245" y="-20"/>
      <point x="150" y="3"/>
      <point x="97" y="66" type="curve"/>
      <point x="132" y="108" type="line"/>
      <point x="176" y="58"/>
      <point x="258" y="36"/>
      <point x="327" y="36" type="curve" smooth="yes"/>
      <point x="470" y="36"/>
      <point x="579" y="116"/>
      <point x="579" y="324" type="curve" smooth="yes"/>
      <point x="579" y="500" type="line"/>
    </contour>
    <contour>
      <point x="579" y="612" type="curve" smooth="yes"/>
      <point x="579" y="754"/>
      <point x="508" y="844"/>
      <point x="346" y="844" type="curve" smooth="yes"/>
      <point x="185" y="844"/>
      <point x="112" y="757"/>
      <point x="112" y="612" type="curve" smooth="yes"/>
      <point x="112" y="447"/>
      <point x="191" y="380"/>
      <point x="346" y="380" type="curve" smooth="yes"/>
      <point x="504" y="380"/>
      <point x="579" y="484"/>
    </contour>
  </outline>
</glyph>
<glyph name="semicolon" format="1">
  <advance width="164"/>
  <unicode hex="003B"/>
  <outline>
    <contour>
      <point x="61" y="148" type="line"/>
      <point x="133" y="148" type="line"/>
      <point x="90.0" y="-78.0" type="line"/>
      <point x="51.0" y="-78.0" type="line"/>
    </contour>
    <contour>
      <point x="45" y="474" type="curve" smooth="yes"/>
      <point x="45" y="503"/>
      <point x="63" y="521"/>
      <point x="92" y="521" type="curve" smooth="yes"/>
      <point x="121" y="521"/>
      <point x="139" y="503"/>
      <point x="139" y="474" type="curve" smooth="yes"/>
      <point x="139" y="445"/>
      <point x="121" y="427"/>
      <point x="92" y="427" type="curve" smooth="yes"/>
      <point x="63" y="427"/>
      <point x="45" y="445"/>
    </contour>
  </outline>
</glyph>
<glyph name="A" format="1">
  <advance width="820"/>
  <unicode hex="0041"/>
  <outline>
    <contour>
      <point x="407" y="827" type="line"/>
      <point x="577" y="361" type="line"/>
      <point x="590" y="384" type="line"/>
      <point x="220" y="384" type="line"/>
      <point x="239" y="365" type="line"/>
    </contour>
    <contour>
      <point x="46" y="0" type="line"/>
      <point x="105" y="0" type="line"/>
      <point x="236" y="357" type="line"/>
      <point x="202" y="336" type="line"/>
      <point x="609" y="336" type="line"/>
      <point x="581" y="351" type="line"/>
      <point x="710" y="0" type="line"/>
      <point x="774" y="0" type="line"/>
      <point x="446" y="880" type="line"/>
      <point x="366" y="880" type="line"/>
    </contour>
  </outline>
</glyph>
<glyph name="B" format="1">
  <advance width="755.0"/>
  <unicode hex="0042"/>
  <outline>
    <contour>
      <point x="96.0" y="0.0" type="line"/>
      <point x="423.0" y="0.0" type="line" smooth="yes"/>
      <point x="592.0" y="0.0"/>
      <point x="702.0" y="82"/>
      <point x="702.0" y="254.0" type="curve" smooth="yes"/>
      <point x="702.0" y="420"/>
      <point x="610.0" y="477"/>
      <point x="473.0" y="498.0" type="curve"/>
      <point x="473.0" y="473.0" type="line"/>
      <point x="592.0" y="488"/>
      <point x="665.0" y="545"/>
      <point x="665.0" y="666.0" type="curve" smooth="yes"/>
      <point x="665.0" y="825"/>
      <point x="561.0" y="880.0"/>
      <point x="409.0" y="880.0" type="curve" smooth="yes"/>
      <point x="96.0" y="880.0" type="line"/>
    </contour>
    <contour>
      <point x="423.0" y="454.0" type="line" smooth="yes"/>
      <point x="556.0" y="454.0"/>
      <point x="641.0" y="401.0"/>
      <point x="641.0" y="254.0" type="curve" smooth="yes"/>
      <point x="641.0" y="120.0"/>
      <point x="554.0" y="56.0"/>
      <point x="423.0" y="56.0" type="curve" smooth="yes"/>
      <point x="135.0" y="56.0" type="line"/>
      <point x="158.0" y="16.0" type="line"/>
      <point x="158.0" y="474.0" type="line"/>
      <point x="130.0" y="454.0" type="line"/>
    </contour>
    <contour>
      <point x="409.0" y="824.0" type="line" smooth="yes"/>
      <point x="524.0" y="824.0"/>
      <point x="604.0" y="786.0"/>
      <point x="604.0" y="666.0" type="curve" smooth="yes"/>
      <point x="604.0" y="547.0"/>
      <point x="501.0" y="505.0"/>
      <point x="387.0" y="505.0" type="curve" smooth="yes"/>
      <point x="128.0" y="505.0" type="line"/>
      <point x="158.0" y="482.0" type="line"/>
      <point x="158.0" y="847.0" type="line"/>
      <point x="135.0" y="824.0" type="line"/>
    </contour>
  </outline>
</glyph>
<glyph name="D" format="1">
  <advance width="853"/>
  <unicode hex="0044"/>
  <outline>
    <contour>
      <point x="96" y="0" type="line"/>
      <point x="96" y="880" type="line"/>
      <point x="300" y="880" type="line" smooth="yes"/>
      <point x="554.020254823" y="880.0"/>
      <point x="787" y="791"/>
      <point x="787" y="440" type="curve" smooth="yes"/>
      <point x="787" y="84"/>
      <point x="554.020254823" y="0.0"/>
      <point x="300" y="0" type="curve" smooth="yes"/>
    </contour>
    <contour>
      <point x="158" y="853" type="line"/>
      <point x="158" y="26" type="line"/>
      <point x="130" y="56" type="line"/>
      <point x="300" y="56" type="line" smooth="yes"/>
      <point x="523" y="56"/>
      <point x="726" y="133"/>
      <point x="726" y="440" type="curve" smooth="yes"/>
      <point x="726" y="748"/>
      <point x="523" y="824"/>
      <point x="300" y="824" type="curve" smooth="yes"/>
      <point x="131" y="824" type="line"/>
    </contour>
  </outline>
</glyph>
<glyph name="E" format="1">
  <advance width="737.0"/>
  <unicode hex="0045"/>
  <outline>
    <contour>
      <point x="96.0" y="0.0" type="line"/>
      <point x="96.0" y="880.0" type="line"/>
      <point x="677.0" y="880.0" type="line"/>
      <point x="677.0" y="824.0" type="line"/>
      <point x="125.0" y="824" type="line"/>
      <point x="158.0" y="859" type="line"/>
      <point x="158.0" y="466" type="line"/>
      <point x="126.0" y="486" type="line"/>
      <point x="646.0" y="486.0" type="line"/>
      <point x="646.0" y="430.0" type="line"/>
      <point x="130.0" y="430" type="line"/>
      <point x="158.0" y="454" type="line"/>
      <point x="158.0" y="23" type="line"/>
      <point x="128.0" y="56" type="line"/>
      <point x="677.0" y="56.0" type="line"/>
      <point x="677.0" y="0.0" type="line"/>
    </contour>
  </outline>
</glyph>
<glyph name="G" format="1">
  <advance width="944"/>
  <unicode hex="0047"/>
  <outline>
    <contour>
      <point x="773" y="710" type="line"/>
      <point x="720" y="801"/>
      <point x="603" y="844"/>
      <point x="491" y="844" type="curve" smooth="yes"/>
      <point x="257" y="844"/>
      <point x="128" y="669"/>
      <point x="128" y="440" type="curve" smooth="yes"/>
      <point x="128" y="205"/>
      <point x="233" y="36"/>
      <point x="467" y="36" type="curve" smooth="yes"/>
      <point x="563" y="36"/>
      <point x="660" y="64"/>
      <point x="721" y="137" type="curve" smooth="yes"/>
      <point x="783" y="210"/>
      <point x="805" y="278"/>
      <point x="805" y="394" type="curve"/>
      <point x="833" y="366" type="line"/>
      <point x="557" y="366" type="line"/>
      <point x="557" y="422" type="line"/>
      <point x="868" y="422" type="line"/>
      <point x="868" y="0" type="line"/>
      <point x="806" y="0" type="line"/>
      <point x="806" y="236" type="line"/>
      <point x="826" y="229" type="line"/>
      <point x="800" y="110"/>
      <point x="695" y="-20"/>
      <point x="467" y="-20" type="curve" smooth="yes"/>
      <point x="195" y="-20"/>
      <point x="66" y="173"/>
      <point x="66" y="440" type="curve" smooth="yes"/>
      <point x="66" y="707"/>
      <point x="219" y="900"/>
      <point x="491" y="900" type="curve" smooth="yes"/>
      <point x="628" y="900"/>
      <point x="758" y="850"/>
      <point x="826" y="744" type="curve"/>
    </contour>
  </outline>
</glyph>
<glyph name="H" format="1">
  <advance width="847.0"/>
  <unicode hex="0048"/>
  <outline>
    <contour>
      <point x="751.0" y="0.0" type="line"/>
      <point x="689.0" y="0.0" type="line"/>
      <point x="689.0" y="450" type="line"/>
      <point x="720.0" y="430" type="line"/>
      <point x="128.0" y="430" type="line"/>
      <point x="158.0" y="450" type="line"/>
      <point x="158.0" y="0.0" type="line"/>
      <point x="96.0" y="0.0" type="line"/>
      <point x="96.0" y="880.0" type="line"/>
      <point x="158.0" y="880.0" type="line"/>
      <point x="158.0" y="463" type="line"/>
      <point x="129.0" y="483" type="line"/>
      <point x="719.0" y="483" type="line"/>
      <point x="689.0" y="463" type="line"/>
      <point x="689.0" y="880.0" type="line"/>
      <point x="751.0" y="880.0" type="line"/>
    </contour>
  </outline>
</glyph>
<glyph name="J" format="1">
  <advance width="667"/>
  <unicode hex="004A"/>
  <outline>
    <contour>
      <point x="571" y="880" type="line"/>
      <point x="571" y="289" type="line" smooth="yes"/>
      <point x="571" y="205"/>
      <point x="556" y="118"/>
      <point x="499" y="57" type="curve" smooth="yes"/>
      <point x="444" y="-1"/>
      <point x="361" y="-20"/>
      <point x="281" y="-20" type="curve" smooth="yes"/>
      <point x="200" y="-20"/>
      <point x="118" y="-1"/>
      <point x="63" y="57" type="curve" smooth="yes"/>
      <point x="41" y="80"/>
      <point x="26" y="107"/>
      <point x="14" y="136" type="curve"/>
      <point x="73" y="159" type="line"/>
      <point x="81" y="137"/>
      <point x="93" y="117"/>
      <point x="109" y="99" type="curve" smooth="yes"/>
      <point x="152" y="52"/>
      <point x="217" y="36"/>
      <point x="281" y="36" type="curve" smooth="yes"/>
      <point x="345" y="36"/>
      <point x="410" y="52"/>
      <point x="452" y="99" type="curve" smooth="yes"/>
      <point x="498" y="150"/>
      <point x="510" y="221"/>
      <point x="510" y="289" type="curve" smooth="yes"/>
      <point x="510" y="880" type="line"/>
    </contour>
  </outline>
</glyph>
<glyph name="K" format="1">
  <advance width="783"/>
  <unicode hex="004B"/>
  <outline>
    <contour>
      <point x="158" y="0" type="line"/>
      <point x="158" y="352" type="line"/>
      <point x="135" y="300" type="line"/>
      <point x="364" y="515" type="line"/>
      <point x="333" y="522" type="line"/>
      <point x="677" y="0" type="line"/>
      <point x="751" y="0" type="line"/>
      <point x="372" y="562" type="line"/>
      <point x="372" y="524" type="line"/>
      <point x="751" y="880" type="line"/>
      <point x="669" y="880" type="line"/>
      <point x="131" y="371" type="line"/>
      <point x="158" y="356" type="line"/>
      <point x="158" y="880" type="line"/>
      <point x="96" y="880" type="line"/>
      <point x="96" y="0" type="line"/>
    </contour>
  </outline>
</glyph>
<glyph name="M" format="1">
  <advance width="994"/>
  <unicode hex="004D"/>
  <outline>
    <contour>
      <point x="96" y="0" type="line"/>
      <point x="96" y="880" type="line"/>
      <point x="180" y="880" type="line" smooth="yes"/>
      <point x="181" y="880"/>
      <point x="512" y="154"/>
      <point x="512" y="154" type="curve"/>
      <point x="485" y="154" type="line"/>
      <point x="819" y="880" type="line"/>
      <point x="898" y="880" type="line"/>
      <point x="898" y="0" type="line"/>
      <point x="836" y="0" type="line"/>
      <point x="836" y="855" type="line"/>
      <point x="860" y="841" type="line"/>
      <point x="528" y="119" type="line"/>
      <point x="467" y="119" type="line"/>
      <point x="467" y="119"/>
      <point x="134" y="846"/>
      <point x="133" y="846" type="curve"/>
      <point x="152" y="855" type="line"/>
      <point x="152" y="0" type="line"/>
    </contour>
  </outline>
</glyph>
<glyph name="O" format="1">
  <advance width="934"/>
  <unicode hex="004F"/>
  <outline>
    <contour>
      <point x="467" y="844" type="curve" smooth="yes"/>
      <point x="231" y="844"/>
      <point x="128" y="693"/>
      <point x="128" y="440" type="curve" smooth="yes"/>
      <point x="128" y="187"/>
      <point x="231" y="36"/>
      <point x="467" y="36" type="curve" smooth="yes"/>
      <point x="703" y="36"/>
      <point x="806" y="187"/>
      <point x="806" y="440" type="curve" smooth="yes"/>
      <point x="806" y="693"/>
      <point x="703" y="844"/>
    </contour>
    <contour>
      <point x="467" y="900" type="curve" smooth="yes"/>
      <point x="745" y="900"/>
      <point x="868" y="726"/>
      <point x="868" y="440" type="curve" smooth="yes"/>
      <point x="868" y="154"/>
      <point x="745" y="-20"/>
      <point x="467" y="-20" type="curve" smooth="yes"/>
      <point x="189" y="-20"/>
      <point x="66" y="154"/>
      <point x="66" y="440" type="curve" smooth="yes"/>
      <point x="66" y="726"/>
      <point x="189" y="900"/>
    </contour>
  </outline>
</glyph>
<glyph name="P" format="1">
  <advance width="714"/>
  <unicode hex="0050"/>
  <outline>
    <contour>
      <point x="135" y="431" type="line"/>
      <point x="387" y="431" type="line" smooth="yes"/>
      <point x="639.5" y="431"/>
      <point x="665" y="576"/>
      <point x="665" y="662" type="curve" smooth="yes"/>
      <point x="665" y="820.968"/>
      <point x="539.729" y="880"/>
      <point x="387" y="880" type="curve" smooth="yes"/>
      <point x="135" y="880" type="line"/>
      <point x="135" y="824" type="line"/>
      <point x="387" y="824" type="line" smooth="yes"/>
      <point x="502.575" y="824"/>
      <point x="604" y="782.092"/>
      <point x="604" y="662" type="curve" smooth="yes"/>
      <point x="604" y="542.718"/>
      <point x="541.29" y="484"/>
      <point x="387" y="484" type="curve" smooth="yes"/>
      <point x="135" y="484" type="line"/>
    </contour>
    <contour>
      <point x="158" y="0" type="line"/>
      <point x="158" y="880" type="line"/>
      <point x="96" y="880" type="line"/>
      <point x="96" y="0" type="line"/>
    </contour>
  </outline>
</glyph>
<glyph name="Q" format="1">
  <advance width="934"/>
  <unicode hex="0051"/>
  <outline>
    <contour>
      <point x="727" y="-186" type="line"/>
      <point x="666" y="-186" type="line"/>
      <point x="484" y="246" type="line"/>
      <point x="544" y="246" type="line"/>
    </contour>
    <component base="O"/>
  </outline>
</glyph>
<glyph name="S" format="1">
  <advance width="744"/>
  <unicode hex="0053"/>
  <outline>
    <contour>
      <point x="140" y="126" type="line"/>
      <point x="176" y="63"/>
      <point x="283" y="36"/>
      <point x="370" y="36" type="curve" smooth="yes"/>
      <point x="538" y="36"/>
      <point x="618" y="97"/>
      <point x="618" y="227" type="curve" smooth="yes"/>
      <point x="618" y="355"/>
      <point x="567" y="416"/>
      <point x="371" y="416" type="curve" smooth="yes"/>
      <point x="154" y="416"/>
      <point x="70" y="506"/>
      <point x="70" y="658" type="curve" smooth="yes"/>
      <point x="70" y="852"/>
      <point x="217" y="900"/>
      <point x="379" y="900" type="curve" smooth="yes"/>
      <point x="488" y="900"/>
      <point x="600" y="873"/>
      <point x="648" y="786" type="curve"/>
      <point x="594" y="754" type="line"/>
      <point x="554" y="823"/>
      <point x="469" y="844"/>
      <point x="379" y="844" type="curve" smooth="yes"/>
      <point x="249" y="844"/>
      <point x="132" y="813"/>
      <point x="132" y="658" type="curve" smooth="yes"/>
      <point x="132" y="539"/>
      <point x="195" y="472"/>
      <point x="371" y="472" type="curve" smooth="yes"/>
      <point x="604" y="472"/>
      <point x="680" y="386"/>
      <point x="680" y="227" type="curve" smooth="yes"/>
      <point x="680" y="70"/>
      <point x="571" y="-20"/>
      <point x="370" y="-20" type="curve" smooth="yes"/>
      <point x="264" y="-20"/>
      <point x="138" y="6"/>
      <point x="85" y="94" type="curve"/>
    </contour>
  </outline>
</glyph>
<glyph name="T" format="1">
  <advance width="696"/>
  <unicode hex="0054"/>
  <outline>
    <contour>
      <point x="42" y="824" type="line"/>
      <point x="42" y="880" type="line"/>
      <point x="654" y="880" type="line"/>
      <point x="654" y="824" type="line"/>
      <point x="352" y="824" type="line"/>
      <point x="379" y="855" type="line"/>
      <point x="379" y="0" type="line"/>
      <point x="317" y="0" type="line"/>
      <point x="317" y="858" type="line"/>
      <point x="338" y="824" type="line"/>
    </contour>
  </outline>
</glyph>
<glyph name="U" format="1">
  <advance width="793"/>
  <unicode hex="0055"/>
  <outline>
    <contour>
      <point x="724" y="880" type="line"/>
      <point x="724" y="289" type="line" smooth="yes"/>
      <point x="724" y="203"/>
      <point x="704" y="116"/>
      <point x="642" y="57" type="curve" smooth="yes"/>
      <point x="577" y="-4"/>
      <point x="486" y="-20"/>
      <point x="397" y="-20" type="curve" smooth="yes"/>
      <point x="307" y="-20"/>
      <point x="216" y="-4"/>
      <point x="151" y="57" type="curve" smooth="yes"/>
      <point x="89" y="116"/>
      <point x="69" y="203"/>
      <point x="69" y="289" type="curve" smooth="yes"/>
      <point x="69" y="880" type="line"/>
      <point x="131" y="880" type="line"/>
      <point x="131" y="289" type="line" smooth="yes"/>
      <point x="131" y="219"/>
      <point x="147" y="148"/>
      <point x="197" y="99" type="curve"/>
      <point x="250" y="49"/>
      <point x="324" y="36"/>
      <point x="397" y="36" type="curve" smooth="yes"/>
      <point x="469" y="36"/>
      <point x="543" y="49"/>
      <point x="596" y="99" type="curve"/>
      <point x="646" y="148"/>
      <point x="662" y="219"/>
      <point x="662" y="289" type="curve" smooth="yes"/>
      <point x="662" y="880" type="line"/>
    </contour>
  </outline>
</glyph>
<glyph name="W" format="1">
  <advance width="1157"/>
  <unicode hex="0057"/>
  <outline>
    <contour>
      <point x="554" y="880" type="line"/>
      <point x="615" y="880" type="line"/>
      <point x="857" y="63" type="line"/>
      <point x="1069" y="880" type="line"/>
      <point x="1127" y="880" type="line"/>
      <point x="898" y="0" type="line"/>
      <point x="818" y="0" type="line"/>
    </contour>
    <contour>
      <point x="551" y="880" type="line"/>
      <point x="604" y="880" type="line"/>
      <point x="346" y="0" type="line"/>
      <point x="265" y="0" type="line"/>
      <point x="30" y="880" type="line"/>
      <point x="94" y="880" type="line"/>
      <point x="306" y="63" type="line"/>
    </contour>
  </outline>
</glyph>
<glyph name="X" format="1">
  <advance width="723"/>
  <unicode hex="0058"/>
  <outline>
    <contour>
      <point x="34" y="880" type="line"/>
      <point x="108" y="880" type="line"/>
      <point x="358" y="501" type="line"/>
      <point x="603" y="880" type="line"/>
      <point x="670" y="880" type="line"/>
      <point x="392" y="450" type="line"/>
      <point x="689" y="0" type="line"/>
      <point x="615" y="0" type="line"/>
      <point x="356" y="393" type="line"/>
      <point x="102" y="0" type="line"/>
      <point x="34" y="0" type="line"/>
      <point x="321" y="445" type="line"/>
    </contour>
  </outline>
</glyph>
<glyph name="b" format="1">
  <advance width="686"/>
  <unicode hex="0062"/>
  <outline>
    <contour>
      <point x="351" y="-19" type="curve" smooth="yes"/>
      <point x="550" y="-19"/>
      <point x="634" y="109"/>
      <point x="634" y="306" type="curve" smooth="yes"/>
      <point x="634" y="505"/>
      <point x="550" y="631"/>
      <point x="351" y="631" type="curve" smooth="yes"/>
      <point x="243" y="631"/>
      <point x="168" y="588"/>
      <point x="118" y="532" type="curve"/>
      <point x="131" y="529" type="line"/>
      <point x="131" y="880" type="line"/>
      <point x="69" y="880" type="line"/>
      <point x="69" y="0" type="line"/>
      <point x="131" y="0" type="line"/>
      <point x="131" y="72" type="line"/>
      <point x="121" y="66" type="line"/>
      <point x="161" y="18"/>
      <point x="251" y="-19"/>
    </contour>
    <contour>
      <point x="351" y="34" type="curve" smooth="yes"/>
      <point x="236" y="34"/>
      <point x="157" y="81"/>
      <point x="120" y="122" type="curve"/>
      <point x="131" y="95" type="line"/>
      <point x="131" y="307" type="line"/>
      <point x="131" y="500" type="line"/>
      <point x="121" y="470" type="line"/>
      <point x="157" y="516"/>
      <point x="224" y="578"/>
      <point x="351" y="578" type="curve" smooth="yes"/>
      <point x="513" y="578"/>
      <point x="573" y="459"/>
      <point x="573" y="306" type="curve" smooth="yes"/>
      <point x="573" y="153"/>
      <point x="512" y="34"/>
    </contour>
  </outline>
</glyph>
<glyph name="d" format="1">
  <advance width="686"/>
  <unicode hex="0064"/>
  <outline>
    <contour>
      <point x="335.0" y="34.0" type="curve" smooth="yes"/>
      <point x="176.0" y="34.0"/>
      <point x="113.0" y="144.0"/>
      <point x="113.0" y="306.0" type="curve" smooth="yes"/>
      <point x="113.0" y="459.0"/>
      <point x="173.0" y="578.0"/>
      <point x="335.0" y="578.0" type="curve" smooth="yes"/>
      <point x="479.0" y="578.0"/>
      <point x="555.0" y="503.0"/>
      <point x="555.0" y="303.0" type="curve"/>
      <point x="555.0" y="117.0"/>
      <point x="470.0" y="34.0"/>
    </contour>
    <contour>
      <point x="566.0" y="0.0" type="line"/>
      <point x="617.0" y="0.0" type="line"/>
      <point x="617.0" y="880.0" type="line"/>
      <point x="555.0" y="880.0" type="line"/>
      <point x="555.0" y="455.0" type="line"/>
      <point x="587.0" y="457.0" type="line"/>
      <point x="545.0" y="581.0"/>
      <point x="465.0" y="631.0"/>
      <point x="339.0" y="631.0" type="curve" smooth="yes"/>
      <point x="149.0" y="631.0"/>
      <point x="52.0" y="505.0"/>
      <point x="52.0" y="306.0" type="curve" smooth="yes"/>
      <point x="52.0" y="109.0"/>
      <point x="148.0" y="-19.0"/>
      <point x="335.0" y="-19.0" type="curve" smooth="yes"/>
      <point x="466.0" y="-19.0"/>
      <point x="562.0" y="61.0"/>
      <point x="583.0" y="171.0" type="curve"/>
      <point x="558.0" y="178.0" type="line"/>
    </contour>
  </outline>
</glyph>
<glyph name="e" format="1">
  <advance width="663"/>
  <unicode hex="0065"/>
  <outline>
    <contour>
      <point x="351" y="-19" type="curve"/>
      <point x="452" y="-19"/>
      <point x="540" y="14"/>
      <point x="587" y="89" type="curve"/>
      <point x="552" y="128" type="line"/>
      <point x="511" y="66"/>
      <point x="443" y="34"/>
      <point x="351" y="34" type="curve"/>
      <point x="196" y="34"/>
      <point x="114.0" y="145.874181225"/>
      <point x="114" y="305" type="curve"/>
      <point x="83" y="289" type="line"/>
      <point x="613" y="289" type="line"/>
      <point x="613" y="307" type="line" smooth="yes"/>
      <point x="613" y="490"/>
      <point x="534" y="631"/>
      <point x="335" y="631" type="curve" smooth="yes"/>
      <point x="137" y="631"/>
      <point x="52" y="487"/>
      <point x="52" y="307" type="curve" smooth="yes"/>
      <point x="52" y="126"/>
      <point x="152" y="-19"/>
    </contour>
    <contour>
      <point x="551" y="312" type="curve"/>
      <point x="584" y="335" type="line"/>
      <point x="81" y="335" type="line"/>
      <point x="115" y="320" type="line"/>
      <point x="115" y="472"/>
      <point x="186" y="578"/>
      <point x="335" y="578" type="curve" smooth="yes"/>
      <point x="454" y="578"/>
      <point x="551" y="521"/>
    </contour>
  </outline>
</glyph>
<glyph name="g" format="1">
  <advance width="678.0"/>
  <unicode hex="0067"/>
  <outline>
    <contour>
      <point x="557.0" y="317.0" type="curve" smooth="yes"/>
      <point x="557.0" y="499.0"/>
      <point x="474.812779133" y="578.0"/>
      <point x="335.0" y="578.0" type="curve" smooth="yes"/>
      <point x="198.808800438" y="578.0"/>
      <point x="114.0" y="501.0"/>
      <point x="114.0" y="317.0" type="curve" smooth="yes"/>
      <point x="114.0" y="130.0"/>
      <point x="198.808800438" y="53.0"/>
      <point x="335.0" y="53.0" type="curve" smooth="yes"/>
      <point x="474.812779133" y="53.0"/>
      <point x="557.0" y="130.0"/>
    </contour>
    <contour>
      <point x="335.0" y="631.0" type="curve" smooth="yes"/>
      <point x="502.0" y="631.0"/>
      <point x="557.0" y="540"/>
      <point x="587.0" y="469" type="curve"/>
      <point x="557.0" y="459" type="line"/>
      <point x="570.0" y="612.0" type="line"/>
      <point x="618.0" y="612.0" type="line"/>
      <point x="618.0" y="-26.0" type="line" smooth="yes"/>
      <point x="618.0" y="-203.0"/>
      <point x="498.0" y="-264.0"/>
      <point x="335.0" y="-264.0" type="curve" smooth="yes"/>
      <point x="219.0" y="-264.0"/>
      <point x="147.0" y="-227.0"/>
      <point x="96.0" y="-188.0" type="curve"/>
      <point x="126.0" y="-144.0" type="line"/>
      <point x="157.0" y="-164.0"/>
      <point x="217.0" y="-211.0"/>
      <point x="335.0" y="-211.0" type="curve" smooth="yes"/>
      <point x="460.0" y="-211.0"/>
      <point x="557.0" y="-170.0"/>
      <point x="557.0" y="-26.0" type="curve" smooth="yes"/>
      <point x="557.0" y="187" type="line"/>
      <point x="580.0" y="182" type="line"/>
      <point x="568.0" y="90"/>
      <point x="491.0" y="0"/>
      <point x="335.0" y="0.0" type="curve" smooth="yes"/>
      <point x="166.0" y="0"/>
      <point x="52.0" y="86.0"/>
      <point x="52.0" y="317.0" type="curve" smooth="yes"/>
      <point x="52.0" y="543.0"/>
      <point x="166.0" y="631.0"/>
    </contour>
  </outline>
</glyph>
<glyph name="h" format="1">
  <advance width="632"/>
  <unicode hex="0068"/>
  <outline>
    <contour>
      <point x="131" y="0" type="line"/>
      <point x="69" y="0" type="line"/>
      <point x="69" y="880" type="line"/>
      <point x="131" y="880" type="line"/>
    </contour>
    <component base="n"/>
  </outline>
</glyph>
<glyph name="i" format="1">
  <advance width="284"/>
  <unicode hex="0069"/>
  <outline>
    <contour>
      <point x="94" y="783" type="curve" smooth="yes"/>
      <point x="94" y="811"/>
      <point x="111" y="828"/>
      <point x="142" y="828" type="curve" smooth="yes"/>
      <point x="173" y="828"/>
      <point x="190" y="811"/>
      <point x="190" y="783" type="curve" smooth="yes"/>
      <point x="190" y="754"/>
      <point x="173" y="737"/>
      <point x="142" y="737" type="curve" smooth="yes"/>
      <point x="111" y="737"/>
      <point x="94" y="754"/>
    </contour>
    <contour>
      <point x="110" y="0" type="line"/>
      <point x="110" y="612" type="line"/>
      <point x="172" y="612" type="line"/>
      <point x="172" y="0" type="line"/>
    </contour>
  </outline>
</glyph>
<glyph name="k" format="1">
  <advance width="627"/>
  <unicode hex="006B"/>
  <outline>
    <contour>
      <point x="111" y="284" type="line"/>
      <point x="133" y="277" type="line"/>
      <point x="133" y="880" type="line"/>
      <point x="71" y="880" type="line"/>
      <point x="71" y="0" type="line"/>
      <point x="133" y="0" type="line"/>
      <point x="133" y="258" type="line"/>
      <point x="111" y="219" type="line"/>
      <point x="317" y="378" type="line"/>
      <point x="286" y="390" type="line"/>
      <point x="548" y="0" type="line"/>
      <point x="615" y="0" type="line"/>
      <point x="331" y="425" type="line"/>
      <point x="331" y="390" type="line"/>
      <point x="615" y="612" type="line"/>
      <point x="531" y="612" type="line"/>
    </contour>
  </outline>
</glyph>
<glyph name="m" format="1">
  <advance width="1039"/>
  <unicode hex="006D"/>
  <outline>
    <contour>
      <point x="104" y="509" type="line"/>
      <point x="168" y="595"/>
      <point x="267" y="631"/>
      <point x="344" y="631" type="curve" smooth="yes"/>
      <point x="426" y="631"/>
      <point x="500" y="595"/>
      <point x="537" y="514" type="curve"/>
      <point x="516" y="508" type="line"/>
      <point x="564" y="565"/>
      <point x="657" y="631"/>
      <point x="767" y="631" type="curve" smooth="yes"/>
      <point x="867" y="631"/>
      <point x="981" y="578"/>
      <point x="981" y="405" type="curve"/>
      <point x="981" y="0" type="line"/>
      <point x="919" y="0" type="line"/>
      <point x="919" y="411" type="line"/>
      <point x="919" y="534"/>
      <point x="846" y="578"/>
      <point x="764" y="578" type="curve" smooth="yes"/>
      <point x="643" y="578"/>
      <point x="558" y="489"/>
      <point x="537" y="447" type="curve"/>
      <point x="546" y="485" type="line"/>
      <point x="550" y="467"/>
      <point x="556" y="428"/>
      <point x="556" y="406" type="curve" smooth="yes"/>
      <point x="556" y="0" type="line"/>
      <point x="494" y="0" type="line"/>
      <point x="494" y="406" type="line" smooth="yes"/>
      <point x="494" y="531"/>
      <point x="427" y="578"/>
      <point x="341" y="578" type="curve" smooth="yes"/>
      <point x="255" y="578"/>
      <point x="164" y="534"/>
      <point x="116" y="450" type="curve"/>
      <point x="131" y="491" type="line"/>
      <point x="131" y="0" type="line"/>
      <point x="69" y="0" type="line"/>
      <point x="69" y="612" type="line"/>
      <point x="122" y="612" type="line"/>
      <point x="131" y="514" type="line"/>
    </contour>
  </outline>
</glyph>
<glyph name="n" format="1">
  <advance width="632"/>
  <unicode hex="006E"/>
  <outline>
    <contour>
      <point x="103" y="506" type="line"/>
      <point x="172" y="600"/>
      <point x="276" y="631"/>
      <point x="353" y="631" type="curve" smooth="yes"/>
      <point x="471" y="631"/>
      <point x="574" y="560"/>
      <point x="574" y="406" type="curve" smooth="yes"/>
      <point x="574" y="0" type="line"/>
      <point x="512" y="0" type="line"/>
      <point x="512" y="406" type="line" smooth="yes"/>
      <point x="512" y="531"/>
      <point x="436" y="578"/>
      <point x="350" y="578" type="curve" smooth="yes"/>
      <point x="264" y="578"/>
      <point x="164" y="533.9"/>
      <point x="116" y="450" type="curve"/>
      <point x="131" y="490.9" type="line"/>
      <point x="131" y="0" type="line"/>
      <point x="69" y="0" type="line"/>
      <point x="69" y="612" type="line"/>
      <point x="122" y="612" type="line"/>
      <point x="131" y="513.9" type="line"/>
    </contour>
  </outline>
</glyph>
<glyph name="o" format="1">
  <advance width="670"/>
  <unicode hex="006F"/>
  <outline>
    <contour>
      <point x="335" y="631" type="curve" smooth="yes"/>
      <point x="534" y="631"/>
      <point x="618" y="490"/>
      <point x="618" y="307" type="curve" smooth="yes"/>
      <point x="618" y="124"/>
      <point x="534" y="-19"/>
      <point x="335" y="-19" type="curve" smooth="yes"/>
      <point x="136" y="-19"/>
      <point x="52" y="126"/>
      <point x="52" y="307" type="curve" smooth="yes"/>
      <point x="52" y="487"/>
      <point x="137" y="631"/>
    </contour>
    <contour>
      <point x="335" y="578" type="curve" smooth="yes"/>
      <point x="175" y="578"/>
      <point x="114" y="453"/>
      <point x="114" y="307" type="curve" smooth="yes"/>
      <point x="114" y="161"/>
      <point x="174" y="34"/>
      <point x="335" y="34" type="curve" smooth="yes"/>
      <point x="497" y="34"/>
      <point x="557" y="161"/>
      <point x="557" y="307" type="curve" smooth="yes"/>
      <point x="557" y="452"/>
      <point x="496" y="578"/>
    </contour>
  </outline>
</glyph>
<glyph name="p" format="1">
  <advance width="688"/>
  <unicode hex="0070"/>
  <outline>
    <contour>
      <point x="119" y="81" type="line"/>
      <point x="171" y="25"/>
      <point x="248" y="-19"/>
      <point x="353" y="-19" type="curve" smooth="yes"/>
      <point x="552" y="-19"/>
      <point x="636" y="108"/>
      <point x="636" y="307" type="curve" smooth="yes"/>
      <point x="636" y="504"/>
      <point x="552" y="631"/>
      <point x="353" y="631" type="curve" smooth="yes"/>
      <point x="267" y="631"/>
      <point x="174" y="592"/>
      <point x="122" y="518" type="curve"/>
      <point x="132" y="518" type="line"/>
      <point x="119" y="612" type="line"/>
      <point x="70" y="612" type="line"/>
      <point x="70" y="-245" type="line"/>
      <point x="132" y="-245" type="line"/>
      <point x="132" y="89" type="line"/>
    </contour>
    <contour>
      <point x="119" y="143" type="curve"/>
      <point x="132" y="101" type="line"/>
      <point x="132" y="484" type="line"/>
      <point x="122" y="452" type="line"/>
      <point x="165" y="507"/>
      <point x="237" y="578"/>
      <point x="353" y="578" type="curve" smooth="yes"/>
      <point x="514" y="578"/>
      <point x="575" y="461"/>
      <point x="575" y="307" type="curve" smooth="yes"/>
      <point x="575" y="153"/>
      <point x="515" y="34"/>
      <point x="353" y="34" type="curve" smooth="yes"/>
      <point x="228" y="34"/>
      <point x="158" y="96"/>
    </contour>
  </outline>
</glyph>
<glyph name="q" format="1">
  <advance width="686"/>
  <unicode hex="0071"/>
  <outline>
    <contour>
      <point x="617" y="-245" type="line"/>
      <point x="617" y="612" type="line"/>
      <point x="565" y="612" type="line"/>
      <point x="555" y="520" type="line"/>
      <point x="575" y="525" type="line"/>
      <point x="524" y="580"/>
      <point x="463" y="631"/>
      <point x="335" y="631" type="curve" smooth="yes"/>
      <point x="136" y="631"/>
      <point x="52" y="505"/>
      <point x="52" y="306" type="curve" smooth="yes"/>
      <point x="52" y="109"/>
      <point x="136" y="-19"/>
      <point x="335" y="-19" type="curve" smooth="yes"/>
      <point x="439" y="-19"/>
      <point x="526" y="17"/>
      <point x="579" y="67" type="curve"/>
      <point x="555" y="71" type="line"/>
      <point x="555" y="-245" type="line"/>
    </contour>
    <contour>
      <point x="335" y="34" type="curve" smooth="yes"/>
      <point x="174" y="34"/>
      <point x="113" y="153"/>
      <point x="113" y="306" type="curve" smooth="yes"/>
      <point x="113" y="459"/>
      <point x="173" y="578"/>
      <point x="335" y="578" type="curve" smooth="yes"/>
      <point x="476" y="578"/>
      <point x="536" y="509"/>
      <point x="575" y="462" type="curve"/>
      <point x="555" y="508" type="line"/>
      <point x="555" y="89" type="line"/>
      <point x="579" y="126" type="line"/>
      <point x="536" y="86"/>
      <point x="455" y="34"/>
    </contour>
  </outline>
</glyph>
<glyph name="r" format="1">
  <advance width="381"/>
  <unicode hex="0072"/>
  <outline>
    <contour>
      <point x="103" y="495" type="line"/>
      <point x="172" y="589"/>
      <point x="266" y="631"/>
      <point x="363" y="631" type="curve"/>
      <point x="363" y="578" type="line"/>
      <point x="257" y="574"/>
      <point x="164" y="523"/>
      <point x="116" y="439" type="curve"/>
      <point x="131" y="480" type="line"/>
      <point x="131.0" y="0.0" type="line"/>
      <point x="69.0" y="0.0" type="line"/>
      <point x="69" y="612" type="line"/>
      <point x="122" y="612" type="line"/>
      <point x="131" y="503" type="line"/>
    </contour>
  </outline>
</glyph>
<glyph name="t" format="1">
  <advance width="446.0"/>
  <unicode hex="0074"/>
  <outline>
    <contour>
      <point x="148.0" y="139.0" type="line" smooth="yes"/>
      <point x="148.0" y="37.0"/>
      <point x="228.0" y="-9"/>
      <point x="309.0" y="-9.0" type="curve" smooth="yes"/>
      <point x="408.0" y="-9" type="line"/>
      <point x="408.0" y="40" type="line"/>
      <point x="313.0" y="40" type="line" smooth="yes"/>
      <point x="254.0" y="40"/>
      <point x="210.0" y="70"/>
      <point x="210.0" y="144" type="curve" smooth="yes"/>
      <point x="210" y="581" type="line"/>
      <point x="190" y="559" type="line"/>
      <point x="382" y="559" type="line"/>
      <point x="382" y="612" type="line"/>
      <point x="190" y="612" type="line"/>
      <point x="210" y="592" type="line"/>
      <point x="210" y="800" type="line"/>
      <point x="148" y="800" type="line"/>
      <point x="148" y="593" type="line"/>
      <point x="168" y="612" type="line"/>
      <point x="28" y="612" type="line"/>
      <point x="28" y="559" type="line"/>
      <point x="168" y="559" type="line"/>
      <point x="148" y="580" type="line"/>
    </contour>
  </outline>
</glyph>
<glyph name="u" format="1">
  <advance width="632"/>
  <unicode hex="0075"/>
  <outline>
    <contour>
      <point x="510" y="0" type="line"/>
      <point x="563" y="0" type="line"/>
      <point x="563" y="612" type="line"/>
      <point x="501" y="612" type="line"/>
      <point x="501" y="108" type="line"/>
      <point x="524" y="162" type="line"/>
      <point x="482" y="99"/>
      <point x="388" y="34"/>
      <point x="282" y="34" type="curve" smooth="yes"/>
      <point x="196" y="34"/>
      <point x="120" y="82"/>
      <point x="120" y="207" type="curve" smooth="yes"/>
      <point x="120" y="612" type="line"/>
      <point x="58" y="612" type="line"/>
      <point x="58" y="207" type="line" smooth="yes"/>
      <point x="58" y="54"/>
      <point x="161" y="-19"/>
      <point x="279" y="-19" type="curve" smooth="yes"/>
      <point x="381" y="-19"/>
      <point x="460" y="30"/>
      <point x="525" y="90" type="curve"/>
      <point x="501" y="94" type="line"/>
    </contour>
  </outline>
</glyph>
<glyph name="w" format="1">
  <advance width="980"/>
  <unicode hex="0077"/>
  <outline>
    <contour>
      <point x="463" y="612" type="line"/>
      <point x="520" y="612" type="line"/>
      <point x="304" y="0" type="line"/>
      <point x="218" y="0" type="line"/>
      <point x="28" y="612" type="line"/>
      <point x="92" y="612" type="line"/>
      <point x="262" y="35" type="line"/>
    </contour>
    <contour>
      <point x="468" y="612" type="line"/>
      <point x="523" y="612" type="line"/>
      <point x="724" y="35" type="line"/>
      <point x="894" y="612" type="line"/>
      <point x="952" y="612" type="line"/>
      <point x="765" y="0" type="line"/>
      <point x="681" y="0" type="line"/>
    </contour>
  </outline>
</glyph>
<glyph name="y" format="1">
  <advance width="586"/>
  <unicode hex="0079"/>
  <outline>
    <contour>
      <point x="30" y="612" type="curve"/>
      <point x="90" y="612" type="line"/>
      <point x="309" y="41" type="line"/>
      <point x="285" y="41" type="line"/>
      <point x="502" y="612" type="line"/>
      <point x="564" y="612" type="line"/>
      <point x="229" y="-245" type="line"/>
      <point x="171" y="-245" type="line"/>
      <point x="275" y="22" type="line"/>
      <point x="275" y="-24" type="line"/>
      <point x="275" y="-24"/>
      <point x="30" y="612"/>
    </contour>
  </outline>
</glyph>
<glyph name="z" format="1">
  <advance width="552"/>
  <unicode hex="007A"/>
  <outline>
    <contour>
      <point x="76" y="560" type="line"/>
      <point x="76" y="612" type="line"/>
      <point x="500" y="612" type="line"/>
      <point x="508" y="563" type="line"/>
      <point x="97" y="29" type="line"/>
      <point x="89" y="53" type="line"/>
      <point x="498" y="53" type="line"/>
      <point x="498" y="0" type="line"/>
      <point x="60" y="0" type="line"/>
      <point x="52" y="58" type="line"/>
      <point x="52" y="58"/>
      <point x="456" y="582"/>
      <point x="457" y="582" type="curve"/>
      <point x="471" y="560" type="line"/>
    </contour>
  </outline>
</glyph>
<glyph name="Eth" format="1">
  <advance width="684"/>
  <unicode hex="00D0"/>
  <outline>
    <contour>
      <point x="82" y="493" type="line"/>
      <point x="82" y="549" type="line"/>
      <point x="601" y="549" type="line"/>
      <point x="601" y="493" type="line"/>
    </contour>
  </outline>
</glyph>
<glyph name="Ntilde" format="1">
  <advance width="904"/>
  <unicode hex="00D1"/>
  <outline>
    <contour>
      <point x="82" y="493" type="line"/>
      <point x="82" y="549" type="line"/>
      <point x="822" y="549" type="line"/>
      <point x="822" y="493" type="line"/>
    </contour>
  </outline>
</glyph>
